<svg aria-hidden="true" style="position: absolute; width: 0; height: 0; overflow: hidden;" version="1.1" xmlns="http://www.w3.org/2000/svg" xmlns:xlink="http://www.w3.org/1999/xlink">
<defs>
<symbol id="icon-menu" viewBox="0 0 32 32">
<path d="M3.2 6.4h25.6c1.767 0 3.2-1.433 3.2-3.2s-1.433-3.2-3.2-3.2h-25.6c-1.767 0-3.2 1.433-3.2 3.2s1.433 3.2 3.2 3.2z"></path>
<path d="M28.8 12.8h-25.6c-1.767 0-3.2 1.433-3.2 3.2s1.433 3.2 3.2 3.2h25.6c1.767 0 3.2-1.433 3.2-3.2s-1.433-3.2-3.2-3.2z"></path>
<path d="M28.8 25.6h-25.6c-1.767 0-3.2 1.433-3.2 3.2s1.433 3.2 3.2 3.2h25.6c1.767 0 3.2-1.433 3.2-3.2s-1.433-3.2-3.2-3.2z"></path>
</symbol>
<symbol id="icon-x-symbol-svgrepo-com" viewBox="0 0 32 32">
<path d="M19.798 16.001l11.885-11.884c0.422-0.422 0.422-1.105 0-1.527l-2.271-2.272c-0.202-0.202-0.477-0.316-0.763-0.316s-0.561 0.114-0.763 0.316l-11.885 11.885-11.885-11.885c-0.202-0.202-0.477-0.316-0.763-0.316s-0.561 0.114-0.763 0.316l-2.271 2.272c-0.422 0.422-0.422 1.105 0 1.527l11.885 11.885-11.884 11.883c-0.422 0.422-0.422 1.105 0 1.527l2.272 2.272c0.202 0.202 0.477 0.316 0.763 0.316s0.561-0.114 0.763-0.316l11.884-11.884 11.884 11.884c0.202 0.202 0.477 0.316 0.763 0.316s0.561-0.114 0.763-0.316l2.272-2.272c0.422-0.422 0.422-1.105 0-1.527l-11.884-11.883z"></path>
</symbol>
</defs>
</svg>
